STARTFONT 2.1
COMMENT  
COMMENT  Copyright (c) 1984, 1987 Adobe Systems Incorporated. All Rights Reserved. Copyright (c) 1988, 1991 Digital Equipment Corporation. All Rights Reserved.
COMMENT  
COMMENT  WARNING:  This bdf file was generated from a font server using
COMMENT  fstobdf.  The resulting font is subject to the same copyright,
COMMENT  license, and trademark restrictions as the original font.  The
COMMENT  authors and distributors of fstobdf disclaim all liability for
COMMENT  misuse of the program or its output.
COMMENT  
FONT -Adobe-Helvetica-Medium-R-Normal--24-240-75-75-P-130-ISO8859-1
SIZE 24 75 75
FONTBOUNDINGBOX 25 29 -1 -5
STARTPROPERTIES 32
FOUNDRY "Adobe"
FAMILY_NAME "Helvetica"
WEIGHT_NAME "Medium"
SLANT "R"
SETWIDTH_NAME "Normal"
ADD_STYLE_NAME ""
PIXEL_SIZE 24
POINT_SIZE 240
RESOLUTION_X 75
RESOLUTION_Y 75
SPACING "P"
AVERAGE_WIDTH 130
CHARSET_REGISTRY "ISO8859"
CHARSET_ENCODING "1"
CAP_HEIGHT 19
X_HEIGHT 14
FACE_NAME "Helvetica"
COPYRIGHT "Copyright (c) 1984, 1987 Adobe Systems Incorporated. All Rights Reserved. Copyright (c) 1988, 1991 Digital Equipment Corporation. All Rights Reserved."
NOTICE "Helvetica is a trademark of Linotype-Hell AG and/or its subsidiaries.  "
_DEC_DEVICE_FONTNAMES "PS=Helvetica"
_DEC_PRODUCTINFO "DECwindows Fonts V2.2, 07-Nov-1991"
RELATIVE_SETWIDTH 50
RELATIVE_WEIGHT 50
CHARSET_COLLECTIONS "ASCII ISO8859-1 ADOBE-STANDARD"
FULL_NAME "Helvetica"
FONT "-Adobe-Helvetica-Medium-R-Normal--24-240-75-75-P-130-ISO8859-1"
WEIGHT 10
RESOLUTION 103
QUAD_WIDTH 15
DEFAULT_CHAR 32
FONT_ASCENT 22
FONT_DESCENT 5
ENDPROPERTIES
CHARS 191
STARTCHAR space
ENCODING 32
SWIDTH 240 0
DWIDTH 6 0
BBX 1 1 0 0
BITMAP
00
ENDCHAR
STARTCHAR exclam
ENCODING 33
SWIDTH 240 0
DWIDTH 6 0
BBX 2 19 2 0
BITMAP
c0
c0
c0
c0
c0
c0
c0
c0
c0
c0
c0
c0
80
80
00
00
c0
c0
c0
ENDCHAR
STARTCHAR quotedbl
ENCODING 34
SWIDTH 320 0
DWIDTH 8 0
BBX 6 6 1 13
BITMAP
cc
cc
cc
cc
cc
44
ENDCHAR
STARTCHAR numbersign
ENCODING 35
SWIDTH 560 0
DWIDTH 14 0
BBX 11 17 2 0
BITMAP
0cc0
0cc0
0cc0
1980
ffe0
ffe0
1980
1980
3300
3300
ffe0
ffe0
3300
3300
6600
6600
6600
ENDCHAR
STARTCHAR dollar
ENCODING 36
SWIDTH 520 0
DWIDTH 13 0
BBX 11 21 1 -2
BITMAP
0600
0600
3f80
7fc0
e6e0
c660
c600
e600
7600
3e00
0f80
07c0
06e0
0660
c660
c660
e6e0
7fc0
3f80
0600
0600
ENDCHAR
STARTCHAR percent
ENCODING 37
SWIDTH 880 0
DWIDTH 22 0
BBX 19 18 1 0
BITMAP
000600
3c0c00
7e0c00
c31800
c31800
c33000
c33000
7e6000
3c6000
00c000
00c780
018fc0
019860
031860
031860
061860
060fc0
040780
ENDCHAR
STARTCHAR ampersand
ENCODING 38
SWIDTH 680 0
DWIDTH 17 0
BBX 14 18 1 0
BITMAP
0f00
1f80
39c0
30c0
30c0
30c0
1980
0f00
1e00
3f18
7398
61d8
c0f0
c060
c0f0
e1d8
7f9c
1e00
ENDCHAR
STARTCHAR apostrophe
ENCODING 39
SWIDTH 240 0
DWIDTH 6 0
BBX 2 6 2 13
BITMAP
c0
c0
c0
40
40
80
ENDCHAR
STARTCHAR parenleft
ENCODING 40
SWIDTH 320 0
DWIDTH 8 0
BBX 5 24 2 -5
BITMAP
18
18
30
30
60
60
60
c0
c0
c0
c0
c0
c0
c0
c0
c0
c0
60
60
60
30
30
18
18
ENDCHAR
STARTCHAR parenright
ENCODING 41
SWIDTH 320 0
DWIDTH 8 0
BBX 5 24 1 -5
BITMAP
c0
c0
60
60
30
30
30
18
18
18
18
18
18
18
18
18
18
30
30
30
60
60
c0
c0
ENDCHAR
STARTCHAR asterisk
ENCODING 42
SWIDTH 400 0
DWIDTH 10 0
BBX 7 7 1 12
BITMAP
10
10
d6
7c
38
6c
44
ENDCHAR
STARTCHAR plus
ENCODING 43
SWIDTH 560 0
DWIDTH 14 0
BBX 12 12 1 1
BITMAP
0600
0600
0600
0600
0600
fff0
fff0
0600
0600
0600
0600
0600
ENDCHAR
STARTCHAR comma
ENCODING 44
SWIDTH 240 0
DWIDTH 6 0
BBX 2 6 2 -3
BITMAP
c0
c0
c0
40
40
80
ENDCHAR
STARTCHAR minus
ENCODING 45
SWIDTH 600 0
DWIDTH 15 0
BBX 11 2 2 6
BITMAP
ffe0
ffe0
ENDCHAR
STARTCHAR period
ENCODING 46
SWIDTH 240 0
DWIDTH 6 0
BBX 2 3 2 0
BITMAP
c0
c0
c0
ENDCHAR
STARTCHAR slash
ENCODING 47
SWIDTH 280 0
DWIDTH 7 0
BBX 7 19 0 0
BITMAP
06
06
06
0c
0c
0c
18
18
18
18
30
30
30
60
60
60
c0
c0
c0
ENDCHAR
STARTCHAR 0
ENCODING 48
SWIDTH 520 0
DWIDTH 13 0
BBX 11 18 1 0
BITMAP
1f00
3f80
71c0
60c0
60c0
c060
c060
c060
c060
c060
c060
c060
c060
60c0
60c0
71c0
3f80
1f00
ENDCHAR
STARTCHAR 1
ENCODING 49
SWIDTH 520 0
DWIDTH 13 0
BBX 6 18 2 0
BITMAP
0c
0c
1c
fc
fc
0c
0c
0c
0c
0c
0c
0c
0c
0c
0c
0c
0c
0c
ENDCHAR
STARTCHAR 2
ENCODING 50
SWIDTH 520 0
DWIDTH 13 0
BBX 11 18 1 0
BITMAP
1e00
7f80
61c0
c0c0
c060
c060
0060
00c0
01c0
0380
0f00
1c00
3800
7000
e000
c000
ffe0
ffe0
ENDCHAR
STARTCHAR 3
ENCODING 51
SWIDTH 520 0
DWIDTH 13 0
BBX 11 18 1 0
BITMAP
1f00
7f80
6180
c0c0
c0c0
c0c0
00c0
0180
0f00
0fc0
00c0
0060
0060
c060
c0c0
61c0
7f80
1f00
ENDCHAR
STARTCHAR 4
ENCODING 52
SWIDTH 520 0
DWIDTH 13 0
BBX 11 18 1 0
BITMAP
0180
0380
0380
0780
0f80
0d80
1980
3980
3180
6180
e180
c180
ffe0
ffe0
0180
0180
0180
0180
ENDCHAR
STARTCHAR 5
ENCODING 53
SWIDTH 520 0
DWIDTH 13 0
BBX 11 18 1 0
BITMAP
7fc0
7fc0
6000
6000
6000
6000
6e00
7f80
71c0
00c0
0060
0060
0060
c060
c0c0
e1c0
7f80
1e00
ENDCHAR
STARTCHAR 6
ENCODING 54
SWIDTH 520 0
DWIDTH 13 0
BBX 11 18 1 0
BITMAP
0f00
3fc0
70c0
6060
e060
c000
c000
cf00
df80
f1c0
e0c0
c060
c060
c060
e060
60c0
7fc0
1f00
ENDCHAR
STARTCHAR 7
ENCODING 55
SWIDTH 520 0
DWIDTH 13 0
BBX 11 18 1 0
BITMAP
ffe0
ffe0
00e0
00c0
0180
0180
0300
0300
0600
0600
0c00
0c00
1c00
1800
1800
3800
3000
3000
ENDCHAR
STARTCHAR 8
ENCODING 56
SWIDTH 520 0
DWIDTH 13 0
BBX 11 18 1 0
BITMAP
0e00
3f80
3180
60c0
60c0
60c0
60c0
3180
1f00
3f80
60c0
e0e0
c060
c060
c060
71c0
7fc0
1f00
ENDCHAR
STARTCHAR 9
ENCODING 57
SWIDTH 520 0
DWIDTH 13 0
BBX 11 18 1 0
BITMAP
1f00
7fc0
71c0
e0c0
c060
c060
c060
c060
e0e0
71e0
7f60
1e60
0060
00e0
c0c0
e1c0
7f80
1e00
ENDCHAR
STARTCHAR colon
ENCODING 58
SWIDTH 240 0
DWIDTH 6 0
BBX 2 14 2 0
BITMAP
c0
c0
c0
00
00
00
00
00
00
00
00
c0
c0
c0
ENDCHAR
STARTCHAR semicolon
ENCODING 59
SWIDTH 240 0
DWIDTH 6 0
BBX 2 17 2 -3
BITMAP
c0
c0
c0
00
00
00
00
00
00
00
00
c0
c0
c0
40
40
80
ENDCHAR
STARTCHAR less
ENCODING 60
SWIDTH 600 0
DWIDTH 15 0
BBX 12 12 1 1
BITMAP
0030
00f0
03c0
0f00
3c00
e000
e000
3c00
0f00
03c0
00f0
0030
ENDCHAR
STARTCHAR equal
ENCODING 61
SWIDTH 600 0
DWIDTH 15 0
BBX 10 6 2 5
BITMAP
ffc0
ffc0
0000
0000
ffc0
ffc0
ENDCHAR
STARTCHAR greater
ENCODING 62
SWIDTH 600 0
DWIDTH 15 0
BBX 12 12 1 1
BITMAP
c000
f000
3c00
0f00
03c0
0070
0070
03c0
0f00
3c00
f000
c000
ENDCHAR
STARTCHAR question
ENCODING 63
SWIDTH 480 0
DWIDTH 12 0
BBX 10 19 1 0
BITMAP
1f00
7f80
71c0
e0c0
c0c0
c1c0
0180
0380
0700
0600
0c00
0c00
0c00
0c00
0000
0000
0c00
0c00
0c00
ENDCHAR
STARTCHAR at
ENCODING 64
SWIDTH 1000 0
DWIDTH 25 0
BBX 22 23 2 -4
BITMAP
00ff00
03ffc0
0f01e0
1c0070
380018
300018
60730c
60fb0c
c1c70c
c3860c
c3060c
c6060c
c60c1c
c60c18
c60c38
e71c70
63f7e0
71e380
380000
1c0000
0f0300
07ff00
00fc00
ENDCHAR
STARTCHAR A
ENCODING 65
SWIDTH 680 0
DWIDTH 17 0
BBX 15 19 1 0
BITMAP
0380
0380
06c0
06c0
0c40
0c60
0c60
1830
1830
1830
3018
3ff8
3ff8
600c
600c
600c
c006
c006
c006
ENDCHAR
STARTCHAR B
ENCODING 66
SWIDTH 680 0
DWIDTH 17 0
BBX 14 19 2 0
BITMAP
ffc0
fff0
c070
c018
c018
c018
c018
c030
ffe0
fff0
c018
c00c
c00c
c00c
c00c
c01c
c038
fff0
ffc0
ENDCHAR
STARTCHAR C
ENCODING 67
SWIDTH 720 0
DWIDTH 18 0
BBX 16 19 1 0
BITMAP
07e0
1ff8
3c3c
700e
6006
e006
c000
c000
c000
c000
c000
c000
c003
e003
6006
700e
3c3c
1ff8
07e0
ENDCHAR
STARTCHAR D
ENCODING 68
SWIDTH 720 0
DWIDTH 18 0
BBX 15 19 2 0
BITMAP
ffc0
fff0
c078
c01c
c00c
c00e
c006
c006
c006
c006
c006
c006
c006
c00e
c00c
c01c
c078
fff0
ffc0
ENDCHAR
STARTCHAR E
ENCODING 69
SWIDTH 640 0
DWIDTH 16 0
BBX 12 19 2 0
BITMAP
fff0
fff0
c000
c000
c000
c000
c000
c000
ffe0
ffe0
c000
c000
c000
c000
c000
c000
c000
fff0
fff0
ENDCHAR
STARTCHAR F
ENCODING 70
SWIDTH 560 0
DWIDTH 14 0
BBX 11 19 2 0
BITMAP
ffe0
ffe0
c000
c000
c000
c000
c000
c000
c000
ffc0
ffc0
c000
c000
c000
c000
c000
c000
c000
c000
ENDCHAR
STARTCHAR G
ENCODING 71
SWIDTH 760 0
DWIDTH 19 0
BBX 16 19 1 0
BITMAP
07e0
1ff8
3c3c
700e
6006
e006
c000
c000
c000
c07f
c07f
c003
c003
e003
6007
700f
3c3f
1ffb
07e3
ENDCHAR
STARTCHAR H
ENCODING 72
SWIDTH 720 0
DWIDTH 18 0
BBX 14 19 2 0
BITMAP
c00c
c00c
c00c
c00c
c00c
c00c
c00c
c00c
fffc
fffc
c00c
c00c
c00c
c00c
c00c
c00c
c00c
c00c
c00c
ENDCHAR
STARTCHAR I
ENCODING 73
SWIDTH 320 0
DWIDTH 8 0
BBX 2 19 3 0
BITMAP
c0
c0
c0
c0
c0
c0
c0
c0
c0
c0
c0
c0
c0
c0
c0
c0
c0
c0
c0
ENDCHAR
STARTCHAR J
ENCODING 74
SWIDTH 520 0
DWIDTH 13 0
BBX 10 19 1 0
BITMAP
00c0
00c0
00c0
00c0
00c0
00c0
00c0
00c0
00c0
00c0
00c0
00c0
c0c0
c0c0
c0c0
c0c0
6180
7f80
3f00
ENDCHAR
STARTCHAR K
ENCODING 75
SWIDTH 720 0
DWIDTH 18 0
BBX 15 19 2 0
BITMAP
c038
c070
c0e0
c1c0
c380
c700
ce00
dc00
fc00
fe00
e700
c380
c1c0
c0e0
c070
c038
c01c
c00e
c006
ENDCHAR
STARTCHAR L
ENCODING 76
SWIDTH 560 0
DWIDTH 14 0
BBX 11 19 2 0
BITMAP
c000
c000
c000
c000
c000
c000
c000
c000
c000
c000
c000
c000
c000
c000
c000
c000
c000
ffe0
ffe0
ENDCHAR
STARTCHAR M
ENCODING 77
SWIDTH 840 0
DWIDTH 21 0
BBX 17 19 2 0
BITMAP
c00180
e00380
e00380
f00780
f00780
d80d80
d80d80
d80d80
cc1980
cc1980
cc1980
c63180
c63180
c63180
c36180
c36180
c36180
c1c180
c1c180
ENDCHAR
STARTCHAR N
ENCODING 78
SWIDTH 720 0
DWIDTH 18 0
BBX 14 19 2 0
BITMAP
e00c
f00c
f00c
d80c
dc0c
cc0c
ce0c
c60c
c70c
c30c
c38c
c18c
c1cc
c0cc
c0ec
c06c
c03c
c03c
c01c
ENDCHAR
STARTCHAR O
ENCODING 79
SWIDTH 720 0
DWIDTH 18 0
BBX 16 19 1 0
BITMAP
07e0
1ff8
3c3c
700e
6006
e007
c003
c003
c003
c003
c003
c003
c003
e007
6006
700e
3c3c
1ff8
07e0
ENDCHAR
STARTCHAR P
ENCODING 80
SWIDTH 640 0
DWIDTH 16 0
BBX 13 19 2 0
BITMAP
ffe0
fff0
c030
c018
c018
c018
c018
c030
fff0
ffe0
c000
c000
c000
c000
c000
c000
c000
c000
c000
ENDCHAR
STARTCHAR Q
ENCODING 81
SWIDTH 720 0
DWIDTH 18 0
BBX 16 19 1 0
BITMAP
07e0
1ff8
3c3c
700e
6006
e007
c003
c003
c003
c003
c003
c003
c003
e007
60e6
707e
3c1c
1ffe
07e7
ENDCHAR
STARTCHAR R
ENCODING 82
SWIDTH 680 0
DWIDTH 17 0
BBX 13 19 2 0
BITMAP
ffe0
fff0
c030
c018
c018
c018
c018
c030
fff0
ffe0
c070
c030
c018
c018
c018
c018
c018
c018
c018
ENDCHAR
STARTCHAR S
ENCODING 83
SWIDTH 640 0
DWIDTH 16 0
BBX 14 19 1 0
BITMAP
07c0
1ff0
3838
7018
6018
6000
7000
3e00
0fc0
01f0
0078
001c
000c
c00c
c00c
e01c
7838
3ff0
0fc0
ENDCHAR
STARTCHAR T
ENCODING 84
SWIDTH 640 0
DWIDTH 16 0
BBX 14 19 1 0
BITMAP
fffc
fffc
0300
0300
0300
0300
0300
0300
0300
0300
0300
0300
0300
0300
0300
0300
0300
0300
0300
ENDCHAR
STARTCHAR U
ENCODING 85
SWIDTH 720 0
DWIDTH 18 0
BBX 14 19 2 0
BITMAP
c00c
c00c
c00c
c00c
c00c
c00c
c00c
c00c
c00c
c00c
c00c
c00c
c00c
c00c
c00c
6018
7038
3ff0
0fc0
ENDCHAR
STARTCHAR V
ENCODING 86
SWIDTH 680 0
DWIDTH 17 0
BBX 15 19 1 0
BITMAP
c006
c006
e00e
600c
701c
3018
3018
3838
1830
1830
1c70
0c60
0c60
0ee0
06c0
06c0
0380
0380
0380
ENDCHAR
STARTCHAR W
ENCODING 87
SWIDTH 880 0
DWIDTH 22 0
BBX 20 19 1 0
BITMAP
c06030
c06030
c06030
c0f030
60f060
619860
619860
619860
619860
3198c0
330cc0
330cc0
330cc0
1b0d80
1b0d80
1e0780
0e0700
0c0300
0c0300
ENDCHAR
STARTCHAR X
ENCODING 88
SWIDTH 680 0
DWIDTH 17 0
BBX 15 19 1 0
BITMAP
c006
e00e
701c
3018
1830
1c70
0ee0
07c0
0380
0380
07c0
0ee0
0c60
1c70
3838
3018
600c
e00e
c006
ENDCHAR
STARTCHAR Y
ENCODING 89
SWIDTH 640 0
DWIDTH 16 0
BBX 14 19 1 0
BITMAP
c00c
e01c
6018
7038
3030
3870
1860
1ce0
0cc0
0fc0
0780
0780
0300
0300
0300
0300
0300
0300
0300
ENDCHAR
STARTCHAR Z
ENCODING 90
SWIDTH 600 0
DWIDTH 15 0
BBX 13 19 1 0
BITMAP
fff8
fff8
0038
0070
00e0
01c0
01c0
0380
0700
0700
0e00
1c00
1c00
3800
7000
7000
e000
fff8
fff8
ENDCHAR
STARTCHAR bracketleft
ENCODING 91
SWIDTH 280 0
DWIDTH 7 0
BBX 4 24 2 -5
BITMAP
f0
f0
c0
c0
c0
c0
c0
c0
c0
c0
c0
c0
c0
c0
c0
c0
c0
c0
c0
c0
c0
c0
f0
f0
ENDCHAR
STARTCHAR backslash
ENCODING 92
SWIDTH 280 0
DWIDTH 7 0
BBX 7 19 0 0
BITMAP
c0
c0
c0
60
60
60
30
30
30
30
18
18
18
0c
0c
0c
06
06
06
ENDCHAR
STARTCHAR bracketright
ENCODING 93
SWIDTH 280 0
DWIDTH 7 0
BBX 4 24 1 -5
BITMAP
f0
f0
30
30
30
30
30
30
30
30
30
30
30
30
30
30
30
30
30
30
30
30
f0
f0
ENDCHAR
STARTCHAR asciicircum
ENCODING 94
SWIDTH 480 0
DWIDTH 12 0
BBX 10 9 1 10
BITMAP
0c00
0c00
1e00
1200
3300
6180
6180
c0c0
c0c0
ENDCHAR
STARTCHAR underscore
ENCODING 95
SWIDTH 560 0
DWIDTH 14 0
BBX 14 2 0 -5
BITMAP
fffc
fffc
ENDCHAR
STARTCHAR grave
ENCODING 96
SWIDTH 240 0
DWIDTH 6 0
BBX 2 6 2 13
BITMAP
40
80
80
c0
c0
c0
ENDCHAR
STARTCHAR a
ENCODING 97
SWIDTH 520 0
DWIDTH 13 0
BBX 11 14 1 0
BITMAP
1f00
3f80
61c0
60c0
00c0
07c0
3fc0
78c0
e0c0
c0c0
c1c0
e3c0
7ee0
3c60
ENDCHAR
STARTCHAR b
ENCODING 98
SWIDTH 560 0
DWIDTH 14 0
BBX 11 19 2 0
BITMAP
c000
c000
c000
c000
c000
cf00
df80
f1c0
e0c0
c060
c060
c060
c060
c060
c060
e0c0
f1c0
df80
cf00
ENDCHAR
STARTCHAR c
ENCODING 99
SWIDTH 480 0
DWIDTH 12 0
BBX 10 14 1 0
BITMAP
1f00
3f80
71c0
60c0
c000
c000
c000
c000
c000
c000
60c0
71c0
3f80
1f00
ENDCHAR
STARTCHAR d
ENCODING 100
SWIDTH 560 0
DWIDTH 14 0
BBX 11 19 1 0
BITMAP
0060
0060
0060
0060
0060
1e60
3f60
71e0
60e0
c060
c060
c060
c060
c060
c060
60e0
71e0
3f60
1e60
ENDCHAR
STARTCHAR e
ENCODING 101
SWIDTH 520 0
DWIDTH 13 0
BBX 11 14 1 0
BITMAP
0e00
3f80
71c0
60c0
c060
c060
ffe0
ffe0
c000
c000
6060
70e0
3fc0
0f00
ENDCHAR
STARTCHAR f
ENCODING 102
SWIDTH 320 0
DWIDTH 8 0
BBX 6 19 1 0
BITMAP
1c
3c
30
30
30
fc
fc
30
30
30
30
30
30
30
30
30
30
30
30
ENDCHAR
STARTCHAR g
ENCODING 103
SWIDTH 560 0
DWIDTH 14 0
BBX 11 19 1 -5
BITMAP
1e60
3f60
71e0
60e0
c060
c060
c060
c060
c060
c060
60e0
71e0
3f60
1e60
0060
c060
e0c0
7fc0
1f00
ENDCHAR
STARTCHAR h
ENCODING 104
SWIDTH 520 0
DWIDTH 13 0
BBX 10 19 2 0
BITMAP
c000
c000
c000
c000
c000
ce00
df80
f180
e0c0
c0c0
c0c0
c0c0
c0c0
c0c0
c0c0
c0c0
c0c0
c0c0
c0c0
ENDCHAR
STARTCHAR i
ENCODING 105
SWIDTH 240 0
DWIDTH 6 0
BBX 2 19 2 0
BITMAP
c0
c0
c0
00
00
c0
c0
c0
c0
c0
c0
c0
c0
c0
c0
c0
c0
c0
c0
ENDCHAR
STARTCHAR j
ENCODING 106
SWIDTH 240 0
DWIDTH 6 0
BBX 4 24 0 -5
BITMAP
30
30
30
00
00
30
30
30
30
30
30
30
30
30
30
30
30
30
30
30
30
30
f0
e0
ENDCHAR
STARTCHAR k
ENCODING 107
SWIDTH 480 0
DWIDTH 12 0
BBX 10 19 2 0
BITMAP
c000
c000
c000
c000
c000
c180
c380
c700
ce00
dc00
f800
fc00
ce00
c600
c700
c380
c180
c1c0
c0c0
ENDCHAR
STARTCHAR l
ENCODING 108
SWIDTH 240 0
DWIDTH 6 0
BBX 2 19 2 0
BITMAP
c0
c0
c0
c0
c0
c0
c0
c0
c0
c0
c0
c0
c0
c0
c0
c0
c0
c0
c0
ENDCHAR
STARTCHAR m
ENCODING 109
SWIDTH 800 0
DWIDTH 20 0
BBX 16 14 2 0
BITMAP
ce3c
ff7e
e3c7
c183
c183
c183
c183
c183
c183
c183
c183
c183
c183
c183
ENDCHAR
STARTCHAR n
ENCODING 110
SWIDTH 560 0
DWIDTH 14 0
BBX 10 14 2 0
BITMAP
ce00
df80
f180
e0c0
c0c0
c0c0
c0c0
c0c0
c0c0
c0c0
c0c0
c0c0
c0c0
c0c0
ENDCHAR
STARTCHAR o
ENCODING 111
SWIDTH 520 0
DWIDTH 13 0
BBX 11 14 1 0
BITMAP
1f00
3f80
71c0
60c0
c060
c060
c060
c060
c060
c060
60c0
71c0
3f80
1f00
ENDCHAR
STARTCHAR p
ENCODING 112
SWIDTH 560 0
DWIDTH 14 0
BBX 11 19 2 -5
BITMAP
cf00
df80
f1c0
e0c0
c060
c060
c060
c060
c060
c060
e0c0
f1c0
df80
cf00
c000
c000
c000
c000
c000
ENDCHAR
STARTCHAR q
ENCODING 113
SWIDTH 560 0
DWIDTH 14 0
BBX 11 19 1 -5
BITMAP
1e60
3f60
71e0
60e0
c060
c060
c060
c060
c060
c060
60e0
71e0
3f60
1e60
0060
0060
0060
0060
0060
ENDCHAR
STARTCHAR r
ENCODING 114
SWIDTH 360 0
DWIDTH 9 0
BBX 6 14 2 0
BITMAP
cc
dc
fc
e0
c0
c0
c0
c0
c0
c0
c0
c0
c0
c0
ENDCHAR
STARTCHAR s
ENCODING 115
SWIDTH 480 0
DWIDTH 12 0
BBX 10 14 1 0
BITMAP
3e00
7f80
e1c0
c0c0
c000
f800
7f00
0f80
01c0
00c0
c0c0
c1c0
ff80
3f00
ENDCHAR
STARTCHAR t
ENCODING 116
SWIDTH 320 0
DWIDTH 8 0
BBX 6 18 1 0
BITMAP
30
30
30
30
fc
fc
30
30
30
30
30
30
30
30
30
30
3c
1c
ENDCHAR
STARTCHAR u
ENCODING 117
SWIDTH 560 0
DWIDTH 14 0
BBX 10 14 2 0
BITMAP
c0c0
c0c0
c0c0
c0c0
c0c0
c0c0
c0c0
c0c0
c0c0
c0c0
c1c0
63c0
7ec0
1cc0
ENDCHAR
STARTCHAR v
ENCODING 118
SWIDTH 520 0
DWIDTH 13 0
BBX 11 14 1 0
BITMAP
c060
c060
c060
60c0
60c0
71c0
3180
3180
1b00
1b00
1b00
0e00
0e00
0e00
ENDCHAR
STARTCHAR w
ENCODING 119
SWIDTH 720 0
DWIDTH 18 0
BBX 18 14 0 0
BITMAP
c0c0c0
c0c0c0
61e180
61e180
61e180
312300
333300
333300
1b3600
1a1600
1e1e00
0e1c00
0c0c00
0c0c00
ENDCHAR
STARTCHAR x
ENCODING 120
SWIDTH 480 0
DWIDTH 12 0
BBX 10 14 1 0
BITMAP
c0c0
e1c0
6180
3300
3f00
1e00
0c00
1e00
1e00
3300
7380
6180
e1c0
c0c0
ENDCHAR
STARTCHAR y
ENCODING 121
SWIDTH 520 0
DWIDTH 13 0
BBX 12 19 0 -5
BITMAP
c030
c030
6030
7060
3060
38e0
18c0
18c0
0d80
0d80
0780
0700
0300
0300
0600
0600
0c00
3c00
3800
ENDCHAR
STARTCHAR z
ENCODING 122
SWIDTH 480 0
DWIDTH 12 0
BBX 10 14 1 0
BITMAP
ffc0
ffc0
0180
0300
0700
0e00
0c00
1c00
3800
3000
6000
e000
ffc0
ffc0
ENDCHAR
STARTCHAR braceleft
ENCODING 123
SWIDTH 320 0
DWIDTH 8 0
BBX 6 24 1 -5
BITMAP
0c
18
30
30
30
30
30
30
30
30
60
c0
c0
60
30
30
30
30
30
30
30
30
18
0c
ENDCHAR
STARTCHAR bar
ENCODING 124
SWIDTH 240 0
DWIDTH 6 0
BBX 2 24 2 -5
BITMAP
c0
c0
c0
c0
c0
c0
c0
c0
c0
c0
c0
c0
c0
c0
c0
c0
c0
c0
c0
c0
c0
c0
c0
c0
ENDCHAR
STARTCHAR braceright
ENCODING 125
SWIDTH 320 0
DWIDTH 8 0
BBX 6 24 1 -5
BITMAP
c0
60
30
30
30
30
30
30
30
30
18
0c
0c
18
30
30
30
30
30
30
30
30
60
c0
ENDCHAR
STARTCHAR asciitilde
ENCODING 126
SWIDTH 560 0
DWIDTH 14 0
BBX 10 4 2 5
BITMAP
70c0
fcc0
cfc0
c380
ENDCHAR
STARTCHAR nobreakspace
ENCODING 160
SWIDTH 240 0
DWIDTH 6 0
BBX 1 1 0 0
BITMAP
00
ENDCHAR
STARTCHAR exclamdown
ENCODING 161
SWIDTH 240 0
DWIDTH 6 0
BBX 2 19 2 -5
BITMAP
00
00
00
00
00
00
00
00
00
00
00
00
00
00
00
00
00
00
00
ENDCHAR
STARTCHAR cent
ENCODING 162
SWIDTH 520 0
DWIDTH 13 0
BBX 10 18 1 -2
BITMAP
0000
0000
0000
0000
0000
0000
0000
c0c0
c000
0040
40c0
c0c0
c0c0
c0c0
c0c0
c0c0
c000
8000
ENDCHAR
STARTCHAR sterling
ENCODING 163
SWIDTH 560 0
DWIDTH 14 0
BBX 12 18 1 0
BITMAP
8010
0030
8070
c060
c0c0
00c0
00c0
00c0
00d0
00d0
00d0
c070
c070
8030
0060
0060
0010
8030
ENDCHAR
STARTCHAR currency
ENCODING 164
SWIDTH 520 0
DWIDTH 13 0
BBX 11 12 1 3
BITMAP
e060
7060
3060
0060
0020
0000
00e0
80e0
8000
0000
0000
0020
ENDCHAR
STARTCHAR yen
ENCODING 165
SWIDTH 560 0
DWIDTH 14 0
BBX 14 18 0 0
BITMAP
0030
0064
30fc
f0f0
e0c0
60ec
e07c
c030
8060
c060
c060
c060
c030
807c
c0ec
e0c0
60e0
1c60
ENDCHAR
STARTCHAR brokenbar
ENCODING 166
SWIDTH 240 0
DWIDTH 6 0
BBX 2 23 2 -4
BITMAP
00
40
00
00
00
00
40
00
40
00
c0
00
c0
00
c0
00
c0
00
00
00
c0
00
c0
ENDCHAR
STARTCHAR section
ENCODING 167
SWIDTH 520 0
DWIDTH 13 0
BBX 11 24 1 -5
BITMAP
0300
0300
0300
0300
0300
c0c0
c0c0
c0c0
c0c0
c000
0000
0000
c0c0
c0c0
c0c0
c0c0
c000
0020
8060
c060
c060
c020
0000
0060
ENDCHAR
STARTCHAR diaeresis
ENCODING 168
SWIDTH 320 0
DWIDTH 8 0
BBX 6 2 1 16
BITMAP
00
e4
ENDCHAR
STARTCHAR copyright
ENCODING 169
SWIDTH 760 0
DWIDTH 19 0
BBX 17 17 1 0
BITMAP
00c380
c1c080
c06000
706000
601c80
0f8000
000380
61c000
c07180
3f8000
00cc80
07f000
1c1c00
300600
600300
43e100
c63180
ENDCHAR
STARTCHAR ordfeminine
ENCODING 170
SWIDTH 360 0
DWIDTH 9 0
BBX 7 12 1 7
BITMAP
8c
10
80
88
00
80
88
00
80
88
00
80
ENDCHAR
STARTCHAR guillemotleft
ENCODING 171
SWIDTH 560 0
DWIDTH 14 0
BBX 9 8 2 3
BITMAP
8c00
8080
3180
4380
0000
0300
3000
0000
ENDCHAR
STARTCHAR notsign
ENCODING 172
SWIDTH 600 0
DWIDTH 15 0
BBX 13 8 1 3
BITMAP
1c00
07f0
0078
ccc8
0c78
ccc8
dc70
00f8
ENDCHAR
STARTCHAR hyphen
ENCODING 173
SWIDTH 320 0
DWIDTH 8 0
BBX 6 2 1 6
BITMAP
fc
18
ENDCHAR
STARTCHAR registered
ENCODING 174
SWIDTH 760 0
DWIDTH 19 0
BBX 17 17 1 0
BITMAP
803300
660080
00cc00
660000
001980
fff880
f80000
001800
180000
001800
18fc80
07f000
1c1c00
300600
600300
43e100
c21180
ENDCHAR
STARTCHAR macron
ENCODING 175
SWIDTH 320 0
DWIDTH 8 0
BBX 6 2 1 16
BITMAP
80
10
ENDCHAR
STARTCHAR degree
ENCODING 176
SWIDTH 360 0
DWIDTH 9 0
BBX 8 7 0 11
BITMAP
80
82
10
80
83
e0
80
ENDCHAR
STARTCHAR plusminus
ENCODING 177
SWIDTH 560 0
DWIDTH 14 0
BBX 12 13 1 0
BITMAP
8240
8080
2080
c220
8040
1100
6000
0030
0600
1c10
0000
f000
fcf0
ENDCHAR
STARTCHAR twosuperior
ENCODING 178
SWIDTH 280 0
DWIDTH 7 0
BBX 7 10 0 8
BITMAP
3c
66
c2
c2
c2
66
3c
06
00
06
ENDCHAR
STARTCHAR threesuperior
ENCODING 179
SWIDTH 280 0
DWIDTH 7 0
BBX 7 10 0 8
BITMAP
00
06
00
06
00
fe
f0
fe
f0
06
ENDCHAR
STARTCHAR acute
ENCODING 180
SWIDTH 280 0
DWIDTH 7 0
BBX 5 4 1 15
BITMAP
00
00
00
00
ENDCHAR
STARTCHAR mu
ENCODING 181
SWIDTH 560 0
DWIDTH 14 0
BBX 10 19 2 -5
BITMAP
0000
0000
00c0
f0c0
f000
7ec0
0600
1800
60c0
fe40
fec0
0600
3c00
c6c0
7c00
3040
c0c0
c0c0
c0c0
ENDCHAR
STARTCHAR paragraph
ENCODING 182
SWIDTH 480 0
DWIDTH 12 0
BBX 10 23 1 -4
BITMAP
c0c0
c0c0
c0c0
c0c0
c0c0
c0c0
c0c0
c0c0
c0c0
c0c0
c0c0
c0c0
00c0
00c0
00c0
00c0
0000
c040
c040
80c0
80c0
80c0
80c0
ENDCHAR
STARTCHAR periodcentered
ENCODING 183
SWIDTH 240 0
DWIDTH 6 0
BBX 2 3 2 6
BITMAP
80
c0
80
ENDCHAR
STARTCHAR cedilla
ENCODING 184
SWIDTH 280 0
DWIDTH 7 0
BBX 5 6 1 -5
BITMAP
f8
80
78
80
78
80
ENDCHAR
STARTCHAR onesuperior
ENCODING 185
SWIDTH 280 0
DWIDTH 7 0
BBX 4 10 1 8
BITMAP
30
80
10
80
10
80
10
80
10
80
ENDCHAR
STARTCHAR masculine
ENCODING 186
SWIDTH 360 0
DWIDTH 9 0
BBX 7 12 1 7
BITMAP
18
80
18
80
18
80
18
80
18
80
18
80
ENDCHAR
STARTCHAR guillemotright
ENCODING 187
SWIDTH 560 0
DWIDTH 14 0
BBX 9 8 3 3
BITMAP
1980
c080
c000
7000
1880
7000
3080
f000
ENDCHAR
STARTCHAR onequarter
ENCODING 188
SWIDTH 760 0
DWIDTH 19 0
BBX 18 18 1 0
BITMAP
303000
303000
6cc6c0
c6c6c0
6c3800
fefec0
006600
330000
801980
330040
00cc00
301800
301800
f03000
f03000
306000
306000
30c000
ENDCHAR
STARTCHAR onehalf
ENCODING 189
SWIDTH 760 0
DWIDTH 19 0
BBX 18 18 1 0
BITMAP
30c000
318300
318700
030f00
030f00
061b00
063300
0c7fc0
0c7fc0
180300
180300
301800
301800
f03000
f03000
306000
306000
30c000
ENDCHAR
STARTCHAR threequarters
ENCODING 190
SWIDTH 760 0
DWIDTH 19 0
BBX 19 18 0 0
BITMAP
30c000
318780
318fc0
0318c0
0300c0
060180
060300
0c0600
0c0c00
181fc0
181fc0
7c0c00
fe0c00
c61800
061800
3c3000
3c3000
066000
ENDCHAR
STARTCHAR questiondown
ENCODING 191
SWIDTH 480 0
DWIDTH 12 0
BBX 10 19 1 -5
BITMAP
c640
00c0
c180
7cc0
8000
8780
0180
8000
0d80
0300
8000
3fc0
0600
e000
0180
0c00
8000
0000
0000
ENDCHAR
STARTCHAR Agrave
ENCODING 192
SWIDTH 680 0
DWIDTH 17 0
BBX 15 24 1 0
BITMAP
0000
0000
000c
000c
000c
000c
0018
0038
0070
0060
00e0
c0c0
c0c0
c0e2
807e
803e
000c
0006
0002
0000
8000
0002
8002
8006
ENDCHAR
STARTCHAR Aacute
ENCODING 193
SWIDTH 680 0
DWIDTH 17 0
BBX 15 24 1 0
BITMAP
c006
c00c
400c
600c
6018
3018
3018
3030
183e
f83e
f860
0c60
0c60
0cc0
06c0
06c0
0600
6000
c000
8002
0000
0002
8002
8006
ENDCHAR
STARTCHAR Acircumflex
ENCODING 194
SWIDTH 680 0
DWIDTH 17 0
BBX 15 24 1 0
BITMAP
c006
c00c
400c
600c
6018
3018
3018
3030
183e
f83e
f860
0c60
0c60
0cc0
06c0
06c0
0600
8002
c006
600c
3000
0002
8002
8006
ENDCHAR
STARTCHAR Atilde
ENCODING 195
SWIDTH 680 0
DWIDTH 17 0
BBX 15 23 1 0
BITMAP
c006
c00c
400c
600c
6018
3018
3018
3030
183e
f83e
f860
0c60
0c60
0cc0
06c0
06c0
0606
100c
b008
e000
0002
8002
8006
ENDCHAR
STARTCHAR Adiaeresis
ENCODING 196
SWIDTH 680 0
DWIDTH 17 0
BBX 15 23 1 0
BITMAP
c006
c00c
400c
600c
6018
3018
3018
3030
183e
f83e
f860
0c60
0c60
0cc0
06c0
06c0
060c
600c
6000
0000
0002
8002
8006
ENDCHAR
STARTCHAR Aring
ENCODING 197
SWIDTH 680 0
DWIDTH 17 0
BBX 15 24 1 0
BITMAP
c006
c00c
400c
600c
6018
3018
3018
3030
183e
f83e
f860
0c60
0c60
0cc0
06c0
06c0
0602
8006
c006
c002
8000
0002
8002
8006
ENDCHAR
STARTCHAR AE
ENCODING 198
SWIDTH 920 0
DWIDTH 23 0
BBX 21 19 1 0
BITMAP
c006c0
0c4008
600c60
183018
301830
301838
f83ff8
600c60
0c6008
c006c0
06c000
03fff8
03fff8
066000
066000
0c6000
0c6000
0c6000
186000
ENDCHAR
STARTCHAR Ccedilla
ENCODING 199
SWIDTH 720 0
DWIDTH 18 0
BBX 16 24 1 -5
BITMAP
187f
f818
7ff8
3060
003f
e000
3fe0
0060
6000
6060
0060
6000
c060
00c0
7ff8
c07f
f807
e01f
f83c
3c70
0e60
06e0
06c0
00c0
ENDCHAR
STARTCHAR Egrave
ENCODING 200
SWIDTH 640 0
DWIDTH 16 0
BBX 12 24 2 0
BITMAP
00c0
00c0
00c0
00c0
00c0
03e0
0360
0670
0e30
3c10
f800
e000
8000
c000
c000
c000
8030
0010
0000
0000
0000
00f0
f0f0
f0c0
ENDCHAR
STARTCHAR Eacute
ENCODING 201
SWIDTH 640 0
DWIDTH 16 0
BBX 12 24 2 0
BITMAP
00c0
00c0
00c0
00c0
00c0
00f0
e0f0
e0c0
00c0
00c0
00c0
00c0
00c0
00c0
00f0
f0f0
f000
8000
0000
0000
0000
00f0
f0f0
f0c0
ENDCHAR
STARTCHAR Ecircumflex
ENCODING 202
SWIDTH 640 0
DWIDTH 16 0
BBX 12 24 2 0
BITMAP
00c0
00c0
00c0
00c0
00c0
00f0
e0f0
e0c0
00c0
00c0
00c0
00c0
00c0
00c0
00f0
f0f0
f000
0000
0010
8030
c000
00f0
f0f0
f0c0
ENDCHAR
STARTCHAR Ediaeresis
ENCODING 203
SWIDTH 640 0
DWIDTH 16 0
BBX 12 23 2 0
BITMAP
00c0
00c0
00c0
00c0
00c0
00f0
e0f0
e0c0
00c0
00c0
00c0
00c0
00c0
00c0
00f0
f0f0
f010
8010
8000
0000
00f0
f0f0
f0c0
ENDCHAR
STARTCHAR Igrave
ENCODING 204
SWIDTH 320 0
DWIDTH 8 0
BBX 5 24 1 0
BITMAP
00
c0
00
c0
00
c0
00
c0
00
c0
00
f8
e0
f8
e0
c0
00
c0
00
c0
00
c0
00
c0
ENDCHAR
STARTCHAR Iacute
ENCODING 205
SWIDTH 320 0
DWIDTH 8 0
BBX 5 24 2 0
BITMAP
00
c0
00
c0
00
f8
f0
f8
f0
c0
60
30
18
00
30
30
30
30
30
30
30
30
30
30
ENDCHAR
STARTCHAR Icircumflex
ENCODING 206
SWIDTH 320 0
DWIDTH 8 0
BBX 8 24 0 0
BITMAP
30
30
30
30
30
30
30
30
30
18
30
60
c0
00
60
60
60
60
60
60
60
60
60
60
ENDCHAR
STARTCHAR Idiaeresis
ENCODING 207
SWIDTH 320 0
DWIDTH 8 0
BBX 6 23 1 0
BITMAP
60
60
60
60
60
60
60
60
60
18
3c
64
c0
00
18
18
18
18
18
18
18
18
18
ENDCHAR
STARTCHAR ETH
ENCODING 208
SWIDTH 720 0
DWIDTH 18 0
BBX 17 19 0 0
BITMAP
181800
181800
181800
18cc80
000000
303000
303000
303000
303000
303000
303000
3ff000
3ffc00
301e00
300700
300300
300380
300180
300180
ENDCHAR
STARTCHAR Ntilde
ENCODING 209
SWIDTH 720 0
DWIDTH 18 0
BBX 14 23 2 0
BITMAP
ff00
80fc
0180
3000
8030
0180
3000
8030
0380
3000
0030
0700
301c
003c
fc00
3ff0
0004
100c
b008
e000
00e0
0cf0
0cf0
ENDCHAR
STARTCHAR Ograve
ENCODING 210
SWIDTH 720 0
DWIDTH 18 0
BBX 16 24 1 0
BITMAP
0cd8
0cdc
0ccc
0cce
0cc6
0cc7
0cc3
0cc3
8cc1
8cc1
ccc0
ccc0
ecc0
6cc0
3cc0
3cc0
1c06
0003
0001
8000
c000
0007
e01f
f83c
ENDCHAR
STARTCHAR Oacute
ENCODING 211
SWIDTH 720 0
DWIDTH 18 0
BBX 16 24 1 0
BITMAP
3c70
0e60
06e0
07c0
03c0
03c0
03c0
03c0
03c0
03c0
03e0
0760
0670
0e3c
3c1f
f807
e000
3000
6000
c001
8000
0007
e01f
f83c
ENDCHAR
STARTCHAR Ocircumflex
ENCODING 212
SWIDTH 720 0
DWIDTH 18 0
BBX 16 24 1 0
BITMAP
3c70
0e60
06e0
07c0
03c0
03c0
03c0
03c0
03c0
03c0
03e0
0760
0670
0e3c
3c1f
f807
e001
8003
c006
600c
3000
0007
e01f
f83c
ENDCHAR
STARTCHAR Otilde
ENCODING 213
SWIDTH 720 0
DWIDTH 18 0
BBX 16 23 1 0
BITMAP
3c70
0e60
06e0
07c0
03c0
03c0
03c0
03c0
03c0
03c0
03e0
0760
0670
0e3c
3c1f
f807
e007
100d
b008
e000
0007
e01f
f83c
ENDCHAR
STARTCHAR Odiaeresis
ENCODING 214
SWIDTH 720 0
DWIDTH 18 0
BBX 16 23 1 0
BITMAP
3c70
0e60
06e0
07c0
03c0
03c0
03c0
03c0
03c0
03c0
03e0
0760
0670
0e3c
3c1f
f807
e006
6006
6000
0000
0007
e01f
f83c
ENDCHAR
STARTCHAR multiply
ENCODING 215
SWIDTH 560 0
DWIDTH 14 0
BBX 13 12 0 1
BITMAP
3c70
0e60
06e0
07c0
03c0
03c0
03c0
03c0
03c0
03c0
03e0
0760
ENDCHAR
STARTCHAR Ooblique
ENCODING 216
SWIDTH 720 0
DWIDTH 18 0
BBX 18 19 0 0
BITMAP
067000
3c3c00
f807c0
c01840
303040
18c000
800700
070000
8018c0
306040
30c000
03f040
0ffcc0
1e1f80
380700
300700
700d80
601980
603180
ENDCHAR
STARTCHAR Ugrave
ENCODING 217
SWIDTH 720 0
DWIDTH 18 0
BBX 14 24 2 0
BITMAP
6060
8060
c180
6180
8060
0180
6600
806c
0380
3800
0038
0700
7e1c
00cc
fc00
83f0
000c
0004
0000
0000
8000
00c0
0cc0
0cc0
ENDCHAR
STARTCHAR Uacute
ENCODING 218
SWIDTH 720 0
DWIDTH 18 0
BBX 14 24 2 0
BITMAP
0cc0
0cc0
0cc0
0cc0
0cc0
0cc0
0cc0
0cc0
0cc0
0cc0
0cc0
0cc0
0c60
1870
383c
f00c
c000
6000
c000
8000
0000
00c0
0cc0
0cc0
ENDCHAR
STARTCHAR Ucircumflex
ENCODING 219
SWIDTH 720 0
DWIDTH 18 0
BBX 14 24 2 0
BITMAP
0cc0
0cc0
0cc0
0cc0
0cc0
0cc0
0cc0
0cc0
0cc0
0cc0
0cc0
0cc0
0c60
1870
383c
f00c
c000
0004
800c
c018
6000
00c0
0cc0
0cc0
ENDCHAR
STARTCHAR Udiaeresis
ENCODING 220
SWIDTH 720 0
DWIDTH 18 0
BBX 14 23 2 0
BITMAP
0cc0
0cc0
0cc0
0cc0
0cc0
0cc0
0cc0
0cc0
0cc0
0cc0
0cc0
0cc0
0c60
1870
383c
f00c
c00c
c00c
c000
0000
00c0
0cc0
0cc0
ENDCHAR
STARTCHAR Yacute
ENCODING 221
SWIDTH 640 0
DWIDTH 16 0
BBX 14 24 1 0
BITMAP
0cc0
0cc0
0cc0
0cc0
0cc0
0cc0
0cc0
0cc0
0cc0
0cc0
0cc0
0cc0
0c60
1870
383c
f00c
c000
6000
c000
8000
0000
00c0
0ce0
1c60
ENDCHAR
STARTCHAR THORN
ENCODING 222
SWIDTH 640 0
DWIDTH 16 0
BBX 13 19 2 0
BITMAP
1870
3830
3038
7018
6018
e008
c008
c000
8000
8000
0000
0000
0000
0000
0000
0000
00c0
00c0
00c0
ENDCHAR
STARTCHAR ssharp
ENCODING 223
SWIDTH 600 0
DWIDTH 15 0
BBX 10 19 3 0
BITMAP
00c0
00c0
e0c0
f0c0
30c0
18c0
18c0
18c0
18c0
30c0
f0c0
e0c0
00c0
00c0
00c0
00c0
0000
0040
00c0
ENDCHAR
STARTCHAR agrave
ENCODING 224
SWIDTH 520 0
DWIDTH 13 0
BBX 11 19 1 0
BITMAP
00c0
80c0
80c0
80c0
00c0
00c0
00c0
00c0
80c0
80c0
c0c0
c0c0
c0c0
80c0
80c0
00c0
0000
0000
0000
ENDCHAR
STARTCHAR aacute
ENCODING 225
SWIDTH 520 0
DWIDTH 13 0
BBX 11 19 1 0
BITMAP
0000
0000
0000
0020
8060
c060
c000
c000
c020
c060
c0e0
c0c0
c0c0
c0e0
c060
e020
6000
8000
0000
ENDCHAR
STARTCHAR acircumflex
ENCODING 226
SWIDTH 520 0
DWIDTH 13 0
BBX 11 19 1 0
BITMAP
0000
0000
0000
0020
8060
c060
c000
c000
c020
c060
c0e0
c0c0
c0c0
c0e0
c060
e020
6000
0000
0000
ENDCHAR
STARTCHAR atilde
ENCODING 227
SWIDTH 520 0
DWIDTH 13 0
BBX 11 19 1 0
BITMAP
8020
c000
0000
0020
8060
c060
c000
c000
c020
c060
c0e0
c0c0
c0c0
c0e0
c060
e020
6000
4020
c020
ENDCHAR
STARTCHAR adiaeresis
ENCODING 228
SWIDTH 520 0
DWIDTH 13 0
BBX 11 18 1 0
BITMAP
8000
0000
0000
0020
8060
c060
c000
c000
c020
c060
c0e0
c0c0
c0c0
c0e0
c060
e020
6000
8000
ENDCHAR
STARTCHAR aring
ENCODING 229
SWIDTH 520 0
DWIDTH 13 0
BBX 11 19 1 0
BITMAP
8000
0000
0000
0020
8060
c060
c000
c000
c020
c060
c0e0
c0c0
c0c0
c0e0
c060
e020
6000
0000
0000
ENDCHAR
STARTCHAR ae
ENCODING 230
SWIDTH 840 0
DWIDTH 21 0
BBX 19 14 1 0
BITMAP
001b00
0e0000
003f80
61c060
c000c0
07c020
c078c0
e0c0c0
c0c1c0
e3c060
e03c60
1f0e00
3fbf80
61f1c0
ENDCHAR
STARTCHAR ccedilla
ENCODING 231
SWIDTH 480 0
DWIDTH 12 0
BBX 10 19 1 -5
BITMAP
60c0
c000
c040
07c0
6000
ffc0
78c0
e0c0
c000
c0c0
00c0
e040
e3c0
e040
3fc0
3c00
0000
0000
8040
ENDCHAR
STARTCHAR egrave
ENCODING 232
SWIDTH 520 0
DWIDTH 13 0
BBX 11 19 1 0
BITMAP
c060
c0c0
00c0
00c0
00c0
00c0
00c0
0060
c060
c020
8000
0000
0000
0000
0020
0000
0000
0000
0000
ENDCHAR
STARTCHAR eacute
ENCODING 233
SWIDTH 520 0
DWIDTH 13 0
BBX 11 19 1 0
BITMAP
0000
0000
0000
0020
8060
c060
c0c0
60c0
60e0
e0e0
e0c0
00c0
0060
6060
e020
c000
0000
8000
0000
ENDCHAR
STARTCHAR ecircumflex
ENCODING 234
SWIDTH 520 0
DWIDTH 13 0
BBX 11 19 1 0
BITMAP
0000
0000
0000
0020
8060
c060
c0c0
60c0
60e0
e0e0
e0c0
00c0
0060
6060
e020
c000
0000
0000
0000
ENDCHAR
STARTCHAR ediaeresis
ENCODING 235
SWIDTH 520 0
DWIDTH 13 0
BBX 11 18 1 0
BITMAP
8020
c000
0000
0020
8060
c060
c0c0
60c0
60e0
e0e0
e0c0
00c0
0060
6060
e020
c000
0000
8000
ENDCHAR
STARTCHAR igrave
ENCODING 236
SWIDTH 240 0
DWIDTH 6 0
BBX 5 19 0 0
BITMAP
80
00
00
00
00
08
00
38
80
70
c0
60
c0
c0
60
c0
60
f8
e0
ENDCHAR
STARTCHAR iacute
ENCODING 237
SWIDTH 240 0
DWIDTH 6 0
BBX 5 19 1 0
BITMAP
f8
e0
c0
00
c0
00
60
60
70
e0
38
c0
08
00
c0
60
30
18
00
ENDCHAR
STARTCHAR icircumflex
ENCODING 238
SWIDTH 240 0
DWIDTH 6 0
BBX 8 19 -1 0
BITMAP
30
30
30
30
30
30
30
30
30
30
30
30
30
30
18
30
60
c0
00
ENDCHAR
STARTCHAR idiaeresis
ENCODING 239
SWIDTH 240 0
DWIDTH 6 0
BBX 6 18 0 0
BITMAP
60
60
60
60
60
60
60
60
60
60
60
60
60
60
18
3c
64
c0
ENDCHAR
STARTCHAR eth
ENCODING 240
SWIDTH 520 0
DWIDTH 13 0
BBX 11 19 1 0
BITMAP
0000
1800
1800
1800
1800
1800
1800
18c0
cc00
0020
3020
3020
3020
3020
3020
3020
30e0
0060
8000
ENDCHAR
STARTCHAR ntilde
ENCODING 241
SWIDTH 560 0
DWIDTH 14 0
BBX 10 18 2 0
BITMAP
0000
00c0
0000
0000
8040
c040
c0c0
60c0
60c0
60c0
60c0
60c0
6040
c040
c000
8000
0000
8040
ENDCHAR
STARTCHAR ograve
ENCODING 242
SWIDTH 520 0
DWIDTH 13 0
BBX 11 19 1 0
BITMAP
8040
0000
00c0
00c0
80e0
80e0
c0c0
c0c0
c0c0
c0c0
c0c0
c0c0
c0c0
c0c0
c0c0
c0c0
c000
0000
0000
ENDCHAR
STARTCHAR oacute
ENCODING 243
SWIDTH 520 0
DWIDTH 13 0
BBX 11 19 1 0
BITMAP
0000
0000
0000
0020
8060
c060
c0c0
60c0
60c0
60c0
60c0
60c0
6060
c060
c020
8000
0000
8000
0000
ENDCHAR
STARTCHAR ocircumflex
ENCODING 244
SWIDTH 520 0
DWIDTH 13 0
BBX 11 19 1 0
BITMAP
0000
0000
0000
0020
8060
c060
c0c0
60c0
60c0
60c0
60c0
60c0
6060
c060
c020
8000
0000
0000
0000
ENDCHAR
STARTCHAR otilde
ENCODING 245
SWIDTH 520 0
DWIDTH 13 0
BBX 11 18 1 0
BITMAP
8020
c000
0000
0020
8060
c060
c0c0
60c0
60c0
60c0
60c0
60c0
6060
c060
c020
8000
0000
4020
ENDCHAR
STARTCHAR odiaeresis
ENCODING 246
SWIDTH 520 0
DWIDTH 13 0
BBX 11 18 1 0
BITMAP
c020
8000
0000
0020
8060
c060
c0c0
60c0
60c0
60c0
60c0
60c0
6060
c060
c020
8000
0020
8020
ENDCHAR
STARTCHAR division
ENCODING 247
SWIDTH 560 0
DWIDTH 14 0
BBX 12 12 1 1
BITMAP
8000
0000
0010
0030
8070
c060
c0c0
60c0
60c0
60c0
60c0
60c0
ENDCHAR
STARTCHAR oslash
ENCODING 248
SWIDTH 520 0
DWIDTH 13 0
BBX 13 14 0 0
BITMAP
6060
c070
c038
8018
0000
0000
0000
0000
0000
00f8
f0f8
f000
0000
0000
ENDCHAR
STARTCHAR ugrave
ENCODING 249
SWIDTH 560 0
DWIDTH 14 0
BBX 10 19 2 0
BITMAP
0000
0000
0000
9800
f000
e000
6040
f040
b040
3040
3040
3040
3000
6000
e040
c0c0
8000
0000
0000
ENDCHAR
STARTCHAR uacute
ENCODING 250
SWIDTH 560 0
DWIDTH 14 0
BBX 10 19 2 0
BITMAP
0000
0000
00c0
c0c0
c0c0
c0c0
c0c0
c0c0
c0c0
c0c0
c0c0
c0c0
c0c0
c040
c040
c000
c000
8000
0000
ENDCHAR
STARTCHAR ucircumflex
ENCODING 251
SWIDTH 560 0
DWIDTH 14 0
BBX 10 19 2 0
BITMAP
0000
0000
00c0
c0c0
c0c0
c0c0
c0c0
c0c0
c0c0
c0c0
c0c0
c0c0
c0c0
c040
c040
c000
c000
0000
0000
ENDCHAR
STARTCHAR udiaeresis
ENCODING 252
SWIDTH 560 0
DWIDTH 14 0
BBX 10 18 2 0
BITMAP
0040
8000
00c0
c0c0
c0c0
c0c0
c0c0
c0c0
c0c0
c0c0
c0c0
c0c0
c0c0
c040
c040
c000
c000
0000
ENDCHAR
STARTCHAR yacute
ENCODING 253
SWIDTH 520 0
DWIDTH 13 0
BBX 12 24 0 -5
BITMAP
0000
0000
00c0
c0c0
c0c0
c0c0
c0c0
c0c0
c0c0
c0c0
c0c0
c0c0
c0c0
c060
c070
c010
c000
c000
8000
0000
0000
00c0
30c0
3060
ENDCHAR
STARTCHAR thorn
ENCODING 254
SWIDTH 560 0
DWIDTH 14 0
BBX 11 24 2 -5
BITMAP
3060
6020
6020
e000
c000
c000
8000
8000
8000
0000
0000
0000
0000
0000
0020
0020
00c0
00c0
00c0
00c0
00c0
00c0
00c0
80e0
ENDCHAR
STARTCHAR ydiaeresis
ENCODING 255
SWIDTH 520 0
DWIDTH 13 0
BBX 12 23 0 -5
BITMAP
c0e0
c0c0
60c0
60c0
60c0
60c0
60c0
60e0
c0f0
c0d0
80c0
00c0
00c0
00c0
00c0
00c0
0010
8010
8000
0000
00c0
30c0
3060
ENDCHAR
ENDFONT
